<?xml version="1.0" encoding="UTF-8"?>
<svg id="Layer_2" data-name="Layer 2" xmlns="http://www.w3.org/2000/svg" viewBox="0 0 558.41 160.76">
  <defs>
    <style>
      .cls-1 {
        fill: #00274c;
      }

      .cls-1, .cls-2, .cls-3 {
        fill-rule: evenodd;
        stroke-width: 0px;
      }

      .cls-2 {
        fill: #ffcb05;
      }

      .cls-3 {
        fill: #333;
      }
    </style>
  </defs>
  <g id="svg5">
    <g id="layer1">
      <path id="path125_14" data-name="path125 14" class="cls-1" d="m163.1,111.29h0s.16.16.16.16l.68.13,3.41.17,18.26.11h22.73l5.13-7.32,19.76-28.29,15.21-21.67,2.44-3.23.52-.53.28-.13.13,1.18.12,3.11.17,9.44.04,9.47-.05,3.15-.1,1.24-5.35.33-5.24.27-4.73,6.55-13.4,18.68-5.26,7.55,9.85.12,23.69-.02,33.54-.11.11-55.82.11-55.82H78.83l-5.95,8.63-14.4,20.81-1.42,2.23-.38.77-.07.39,6.24.15,16.96.12,56.73.11,57.11.11,16.72.12,6.1.15-.12.39-.59,1.03-3.08,4.66-17,24.56-9.11,13.11-13.67,19.64-6.83,9.87-2.97,4.44Z"/>
      <path id="path125_13" data-name="path125 13" class="cls-1" d="m293.04,112.45h0s5.41.1,5.41.1l14.51.07h47.48s67.11-.1,67.11-.1V40.42l-49.38-.22-49.38-.22-.13-2.51v-2.62l49.51-.33,49.38-.22.11-16.12-.03-12.52-.13-3.02-.22-1.17-1.61-.15-4.31-.13-15.19-.2-45.84-.18-45.87.13-15.22.19-4.33.12-1.63.14-.14.94-.12,2.36-.18,8.19-.13,24.54.18,24.51.2,8.16.13,2.34.14.91.82.12,2.2.11,8.92.17,38.65.2,49.99.11v4.81l-49.99.11-38.65.2-8.92.17-2.2.11-.82.12-.16.29-.13.64-.18,2.64-.12,12.96.09,11.42.09,3.54.11,1.38Z"/>
      <path id="path125_12" data-name="path125 12" class="cls-2" d="m435.49,112.88h0s2.71.11,2.71.11l7.17.09,23.34.09,26.88-.11,4.91-.18,1.03-.14.35-.17-.67-1.32-1.93-3.21-6.17-9.8-6.84-10.55-4.63-6.78-.89-.93-.32-.09-.25.17-.18.44-.12.72-.1,2.33-.13,2.14-.13.71-.16.33-.2.05-.26-.08-.79-.65-3.44-3.99-2.41-2.93.51-2.48.31-2.07v-.87s-.11-.81-.11-.81l-.23-.79-.36-.81-1.13-1.85-1.23-2.11-.8-1.94-.47-2.67-.36-3.53-.16-3.16.03-1.05.12-.5.37-.02.75.22,2.29.99,2.75,1.43,2.51,1.54,1.98,1.74,2.12,2.37,1.68,1.97.75.7.74.55.77.42.83.31,2.03.41,1.68.29.96.28.86,1.38,1.36,2.76,1.26,2.85.55,1.65-.02.42-.08.1-.19.02-2.55-.81-2.45-.73-.8-.13-.53.03-.27.19v.35s.22.52.22.52l.48.69,12.29,17.65,8.38,12.02,4.01,5.58.9.99,22.2-.02,15.68-.11,4.77-.1,1.75-.12-12.06-17.35-26.59-37.93-26.79-38.08-12.65-17.83-.32-.24-.63-.18-3.01-.23-6.76-.1-12.18-.02h-22.22v55.86l.09,39.54.09,12.09.11,4.52Z"/>
      <path id="path125_11" data-name="path125 11" class="cls-2" d="m53.95,112.73l1.55.19,4.32.14,16.58.11h22.18l.88-.98,7.65-10.81,17.16-24.6,17.41-25.32,4.7-7.07,1.2-1.92.37-.75-.24-.19-.65-.15-3.14-.19-17.81-.11-11.81.02-6.6.1-3.01.23-.67.18-.38.24-2.6,3.42-5.87,8.17-17.08,24.2-16.73,24.02-5.44,7.95-1.99,3.12Z"/>
      <path id="path125_10" data-name="path125 10" class="cls-2" d="m108.15,112.75l1.63.18,4.47.13,16.34.11h22.18l.9-.98,7.72-10.88,17.3-24.79,11.4-16.45,7.34-10.76,3.86-5.92.8-1.41.14-.52-1.92-.15-4.79-.12-15.31-.11-17.05.11-3.71.17-.93.12-.43.14-2.52,3.33-5.86,8.15-17.17,24.3-16.88,24.19-5.49,8.01-2.02,3.14Z"/>
      <path id="path125_9" data-name="path125 9" class="cls-2" d="m0,112.83h0l1.76.12,4.81.1,15.82.11,17.89-.1,3.83-.17.95-.12.44-.15,2.28-2.96,4.5-6.33,24.13-34.69,12.77-18.53,3.9-5.8,1.44-2.32-.11-.21-.49-.17-2.83-.23-6.53-.13-11.68-.08-11.91-.04-6.63.06-3.01.22-.67.18-.39.24-2.43,3.25-5.82,8.09-17.24,24.23-17.07,24.19-5.61,8.04-2.13,3.18Z"/>
      <path id="path125_8" data-name="path125 8" class="cls-3" d="m357.75,159.9h0l.81.35.94.26,2.07.26,2.02-.1.88-.19.73-.29,1.03-.64.94-.8.84-.93.74-1.06.62-1.16.49-1.25.35-1.32.2-1.37.02-2.27-.36-2.05-.74-1.83-1.11-1.6-1.34-1.27-1.47-.86-1.7-.48-2.02-.15-1.08.05-1,.16-.92.27-.85.38-.79.5-.74.63-1.37,1.65-.56.93-.45.99-.58,2.12-.17,2.21.21,2.2.58,2.09.93,1.87.59.83.67.74.75.63.83.52Zm6.61-2.44l.87-.84.71-1.13.54-1.35.35-1.5.15-1.58-.06-1.59-.28-1.53-.51-1.39-.69-1.13-.84-.88-.94-.62-1.01-.35-1.05-.08-1.04.2-1,.49-.92.79-.67.85-.54.94-.41,1.01-.28,1.06-.16,1.09-.04,1.1.08,1.09.18,1.06.29,1.01.39.94.48.85.57.74.66.61.74.46.82.29.89.1,1.49-.21,1.21-.5Z"/>
      <path id="path125_7" data-name="path125 7" class="cls-3" d="m73.68,159.71h0l.29.37.65.2,1.25.06,2.07-.06,3.08-.27,1.22-.25,1.04-.35.9-.46.79-.59.72-.72.67-.87.67-1.08.37-1.05.16-1.43.03-2.23-.03-2.2-.16-1.44-.35-1.06-.63-1.07-.69-.91-.77-.77-.86-.63-.98-.5-1.11-.37-1.27-.26-1.44-.15-1.63-.05-1.87.03-1.19.11-.66.21-.29.34-.2,2.99-.06,5.74.07,5.74.2,2.99Zm8.01-2.78l1.21-1.15.85-1.38.5-1.65.16-1.95-.09-1.51-.28-1.34-.45-1.16-.62-.97-.79-.77-.95-.56-1.1-.35-1.25-.13-1.74-.03-.12,6.53-.02,4.8.13,2.36.22.25.41.14,1.21-.03,1.43-.39,1.3-.7Z"/>
      <path id="path125_6" data-name="path125 6" class="cls-3" d="m297.75,159.81l.42.26.94.18,2.83.13,3.13-.16,1.31-.19.95-.26,1.36-.8,1.05-1.09.68-1.28.18-.69.06-.7-.08-.83-.27-.73-.54-.75-.86-.89-.97-.96-.43-.59.04-.43.43-.48.71-.78.53-.8.35-.8.16-.81-.03-.8-.21-.8-.4-.79-.58-.77-1.27-1.43h-9.47l-.12,8.73-.02,6.33.12,2.96Zm8.35-2.64l.49-.5.36-.55.23-.58.09-.59-.04-.58-.17-.55-.31-.51-.45-.45-.58-.34-.75-.25-1.71-.22-1.54.16-.54.23-.29.32-.23,1.19-.02,1.5.17,1.38.15.51.19.32.42.28.55.18,1.36.05,1.44-.32.65-.29.55-.38Zm-.39-8.68l.71-.96.22-.52.08-.46-.09-.54-.25-.52-.39-.48-.51-.42-.59-.34-.66-.25-.69-.14h-.7s-.86.11-.86.11l-.5.28-.29.6-.22,1.09-.2,1.78.04.61.15.45.27.31.41.2,1.27.14.87-.06.74-.17.64-.3.56-.42Z"/>
      <path id="path125_5" data-name="path125 5" class="cls-3" d="m413.79,150.96v9.46l1.42-.14,1.42-.14.13-3.49.1-1.79.18-1.27.28-.75.19-.18.22-.05.57.29.77.82,2.23,3.22,1.23,1.86.85,1.02.72.43.87.09,1.05-.14.32-.15.12-.19-.64-1.25-1.54-2.33-1.54-2.33-.64-1.25.37-.55.89-.66,1.04-.89.85-1.26.57-1.46.21-1.49-.09-.71-.27-.72-.47-.76-.67-.81-1.49-1.63-4.62-.15-4.62-.15v9.46Zm7.89-1.77l.36-.43.26-.55.16-.67.05-.77-.06-.73-.18-.63-.3-.53-.42-.42-.54-.31-.65-.21-.76-.09-.87.02-1.67.14-.13,2.57-.04,2.13.08.68.17.47.27.28.4.13,1.26-.06,1.5-.39,1.11-.61Z"/>
      <path id="path125_4" data-name="path125 4" class="cls-3" d="m242.38,160.09h0s.55.18.55.18h.87s.63-.14.63-.14l.2-.16.14-.27.17-1.02.09-1.88.25-2.63.22-.79.27-.43.26-.18.25-.06.28.1.35.3,1.08,1.36,1.82,2.63,1.08,1.51.84.96.71.53.71.21h.99s.61-.22.61-.22l-.05-.4-.4-.82-1.57-2.41-1.67-2.44-.69-1.28.39-.54.94-.67.8-.59.66-.76.51-.89.35-.99.18-1.04v-1.07s-.19-1.05-.19-1.05l-.39-.99-.42-.65-.53-.55-.66-.44-.82-.35-.99-.26-1.18-.18-3-.13h-3.95v9.1l.09,6.52.1,2.05.12.84Zm7.88-11.32l.71-1.05.17-.49.05-.48-.08-.48-.2-.48-.77-.98-.62-.54-.62-.31-.73-.13-.97.02-1.85.13-.13,2.54.05,2.05.15.71.22.45.38.29.51.16.61.03.66-.08,1.34-.49.61-.39.51-.48Z"/>
      <path id="path125_3" data-name="path125 3" class="cls-3" d="m469.28,151v9.42s1.42-.14,1.42-.14l1.42-.14.12-6.04.21-4.47.17-1.1.1-.26.11-.06.46.52.91,1.31,2.66,4.2,2.06,3.35,1.24,1.75.45.44.41.23.94.11h1.53v-18.35h-3.06l-.12,6.01-.2,4.26-.16,1.28-.17.47-.36-.35-.67-.95-1.91-3.11-2.41-4.1-1.61-2.37-.61-.68-.55-.41-.52-.21-.55-.06h-1.31v9.42Z"/>
      <path id="path125_2" data-name="path125 2" class="cls-3" d="m183.95,159.72l.08.26.22.19.72.18.84-.12.37-.17.29-.25.46-.9.47-1.39.52-1.63.28-.51.34-.34.45-.2.6-.09,1.83.02,2.8.13.93,2.62.54,1.43.46.81.55.38.8.15h1.11s.68-.23.68-.23l-.11-.85-.56-2.04-2.12-6.43-3.16-8.95-1.39-.13-.69-.02-.51.12-.39.28-.32.46-1.28,3.2-2.06,5.68-1.91,5.55-.84,2.8Zm9.17-8.45l-.22-1.36-.53-1.61-.62-1.32-.28-.38-.21-.1-.23.18-.26.36-.51,1.12-.4,1.38-.18,1.31.03.66.21.36.52.15.96.03.86-.03.53-.12.27-.24.08-.39Z"/>
      <path id="path125_1" data-name="path125 1" class="cls-3" d="m131.27,159.81l.38.26.97.17,4.13.13h5.26v-1.07l-.07-.61-.15-.2-.27-.14-1.07-.16-2.04-.09-3.6-.13-.13-3.15-.13-3.15,2.75-.13,1.48-.1.85-.17.41-.31.16-.53.02-.54-.25-.3-.68-.13-1.27-.03-1.89-.09-.61-.15-.42-.25-.27-.39-.14-.54v-1.67s.13-2.36.13-2.36l3.5-.22,1.87-.14,1.05-.18.47-.29.11-.47-.12-.48-.23-.15-.41-.11-1.57-.11-2.91-.02h-5.24l-.12,8.73-.02,6.33.12,2.96Z"/>
    </g>
  </g>
</svg>