<?xml version="1.0" encoding="UTF-8"?>
<svg id="Layer_2" data-name="Layer 2" xmlns="http://www.w3.org/2000/svg" viewBox="0 0 558.41 160.77">
  <defs>
    <style>
      .cls-1 {
        fill: #fff;
        stroke-width: 0px;
      }
    </style>
  </defs>
  <g id="svg5">
    <g id="layer1">
      <path id="path125" class="cls-1" d="m357.75,159.9c-4.6-2.43-6.07-10.33-2.81-15.11,1.75-2.57,3.73-3.64,6.75-3.64s4.78.78,6.54,2.77c1.73,1.98,2.47,4.58,2.18,7.76-.33,3.71-2.37,7.04-5.21,8.52-1.71.89-5.49.75-7.45-.29h0Zm6.61-2.43c2.55-1.78,3.47-7.42,1.78-10.91-1.62-3.34-5.18-4.09-7.51-1.58-3.96,4.28-1.92,13.2,3.03,13.2.93,0,2.14-.32,2.7-.71h0Zm-290.68,2.25c-.36-.93-.37-16.52-.02-17.45.21-.56,1-.69,4.01-.69,4.62,0,7,.99,8.75,3.63,1.06,1.6,1.17,2.16,1.17,5.77s-.1,4.14-1.24,5.79c-1.76,2.54-3.65,3.33-8.42,3.52-3.41.14-4.02.05-4.26-.57h0Zm8.01-2.77c1.86-1.38,2.72-3.33,2.72-6.14,0-4.27-2.01-6.74-5.55-6.8l-1.75-.03-.12,6.54c-.07,3.59-.01,6.81.12,7.16.32.83,3.09.39,4.58-.73Zm49.58,2.86c-.12-.31-.16-4.49-.1-9.29l.12-8.73h5.24c4.95,0,5.24.05,5.24.87,0,.78-.36.9-3.5,1.09l-3.5.22-.13,2.36c-.16,2.81.13,3.08,3.33,3.09,2.16,0,2.31.08,2.18.99-.13.88-.42,1-2.89,1.11l-2.75.13.13,3.15.13,3.15,3.6.13c3.5.12,3.6.16,3.6,1.2v1.07h-5.26c-3.86,0-5.31-.15-5.47-.56h0Zm52.68-.08c0-.74,5.32-15.78,6.09-17.23.4-.75.84-.94,1.91-.84l1.39.13,3.16,8.95c1.74,4.92,2.99,9.11,2.79,9.32-.2.2-1.01.31-1.79.23-1.31-.13-1.5-.35-2.35-2.76l-.93-2.62-2.8-.13c-3.1-.15-3.25-.04-4.02,2.75-.26.96-.68,1.99-.93,2.29-.63.77-2.53.7-2.53-.1h0Zm9.18-8.45c0-1.4-1.39-4.93-1.88-4.77-.6.2-1.54,2.8-1.59,4.36-.03,1.12.09,1.2,1.71,1.2,1.4,0,1.75-.16,1.75-.8h0Zm49.25,8.83c-.17-.17-.31-4.41-.31-9.41v-9.1h3.95c4.63,0,6.62.67,7.6,2.57,1.32,2.55.4,6.06-1.92,7.39-.73.42-1.33.96-1.33,1.21,0,.25,1.06,1.92,2.37,3.71s2.21,3.42,2.02,3.62c-.19.2-.91.3-1.6.22-.99-.11-1.68-.77-3.34-3.2-3.06-4.49-3.32-4.75-4.04-4.15-.4.34-.66,1.65-.74,3.86-.12,3.22-.17,3.35-1.24,3.48-.61.07-1.25-.01-1.42-.18h0Zm7.88-11.32c1.28-1.47,1.24-2.61-.11-3.97-.89-.89-1.45-1.07-2.95-.96l-1.85.13-.13,2.55c-.08,1.59.08,2.8.42,3.21.81.97,3.42.43,4.63-.96h0Zm47.5,11.03c-.12-.31-.16-4.49-.1-9.29l.12-8.73h9.47l1.27,1.43c1.81,2.02,1.62,4.28-.53,6.35-.79.76-.77.83.93,2.44,1.39,1.33,1.75,1.97,1.75,3.2,0,1.87-1.35,3.72-3.34,4.55-1.91.8-9.27.83-9.58.04h0Zm8.36-2.63c1.48-1.27,1.57-3.21.19-4.32-1.28-1.04-5.04-1.11-5.42-.1-.46,1.19-.29,4.35.26,4.9.9.9,3.68.63,4.97-.48h0Zm-.39-8.68c.56-.52,1.01-1.39,1.01-1.93,0-1.46-2.03-2.87-3.9-2.71-1.46.12-1.56.24-1.88,2.09-.5,2.92-.17,3.5,1.95,3.5,1.25,0,2.11-.29,2.81-.95h0Zm108.07,2.47v-9.46l4.62.15,4.62.15,1.49,1.63c1.03,1.13,1.49,2.05,1.49,2.99,0,1.93-1.2,4.22-2.67,5.09-.69.41-1.26.96-1.26,1.22s.98,1.87,2.18,3.58,2.18,3.32,2.18,3.58-.67.48-1.49.48c-1.38,0-1.65-.25-3.67-3.41-3.66-5.71-4.34-5.76-4.54-.3l-.13,3.49-1.42.14-1.42.14v-9.46Zm7.9-1.77c.55-.5.84-1.34.84-2.43,0-2.1-1.33-3.12-3.79-2.92l-1.67.14-.13,2.57c-.19,3.61,0,3.93,2.14,3.64.98-.13,2.15-.58,2.61-1h0Zm47.59,1.81v-9.42h1.31c1.53,0,2.33,1,6.25,7.83,1.39,2.42,2.71,4.41,2.94,4.41s.46-2.67.53-6.01l.12-6.01h3.06v18.35h-1.53c-1.49,0-1.61-.13-5.1-5.89-1.96-3.24-3.78-5.96-4.03-6.04-.3-.1-.5,1.91-.58,5.89l-.12,6.04-1.42.14-1.42.14v-9.42ZM0,112.83c.02-.58,49.35-70.22,50.29-70.99.86-.71,2.46-.76,22.61-.66,19.65.1,21.68.18,21.63.82-.03.39-8.18,12.38-18.11,26.65-9.93,14.27-20.79,29.88-24.13,34.69-3.34,4.81-6.4,8.99-6.78,9.29-.55.43-5.67.55-23.12.53C10.07,113.15,0,113,0,112.83Zm53.95-.1c-.28-.45,48.14-69.51,49.7-70.89.8-.71,2.52-.76,22.46-.76,18.58,0,21.63.09,21.84.64.15.39-8.97,13.9-23.68,35.07-13.16,18.93-24.32,34.87-24.81,35.41l-.88.98h-22.18c-14.46,0-22.28-.15-22.46-.44h0Zm54.19.02c-.26-.43,48.67-70.12,49.94-71.13.53-.42,5.62-.54,22.12-.54,11.79,0,21.7.17,22.02.38.44.28-5.38,8.95-23.54,35.06-13.27,19.08-24.53,35.13-25.02,35.67l-.9.98h-22.18c-13.81,0-22.28-.16-22.44-.42h0Zm327.35.13c-.16-.16-.29-25.43-.29-56.15V.87h22.22c20.61,0,22.27.06,22.9.76,1.07,1.2,78.08,110.84,78.09,111.19,0,.17-9.98.32-22.19.33l-22.2.02-.9-.99c-.5-.54-6.07-8.46-12.39-17.59-6.32-9.13-11.85-17.07-12.29-17.65-1.58-2.06-.68-2.31,3.35-.92,3.02,1.04,2.84,1.02,2.84.28,0-.83-3.49-8.3-4.03-8.64-.25-.15-1.44-.41-2.64-.57-3.13-.42-4.29-1.15-6.79-4.34-1.22-1.55-3.06-3.4-4.09-4.11-2.88-1.98-8.28-4.57-8.67-4.17-.44.45.19,8.48.85,10.92.27,1,1.18,2.82,2.03,4.05,1.9,2.77,2.17,4.05,1.52,7.2l-.51,2.48,2.41,2.93c3.39,4.14,4.21,4.95,4.68,4.66.23-.14.41-1.57.42-3.18.01-3.92.44-4.53,1.86-2.64,3.41,4.52,20.44,31.15,20.24,31.66-.2.51-5.5.61-33.16.61-18.11,0-33.06-.13-33.22-.29h0Zm-142.45-.44c-.16-.16-.29-7.51-.29-16.33,0-12.92.11-16.14.59-16.53.42-.35,14.52-.52,50.58-.6l49.99-.11v-4.81l-49.99-.11c-36.06-.08-50.15-.25-50.58-.6-.82-.68-.88-71.14-.06-71.96.83-.83,133.32-.75,134.01.07.35.43.46,5.18.38,16.71l-.11,16.12-49.38.22c-27.16.12-49.44.27-49.51.33-.07.06-.07,1.24,0,2.62l.13,2.51,49.38.22,49.38.22v72.1l-67.11.11c-36.91.06-67.24-.02-67.4-.18h0Zm-129.94-1.15c.12-.31,4.53-6.75,9.8-14.31,5.27-7.56,11.42-16.4,13.67-19.64,2.25-3.24,6.35-9.14,9.11-13.11,17.4-24.98,21-30.29,20.79-30.64-.14-.22-34.07-.39-79.93-.39s-79.8-.17-79.93-.38c-.13-.21.71-1.73,1.87-3.39,2.26-3.22,5.02-7.23,14.4-20.81l5.95-8.63h206.5l-.11,55.82-.11,55.82-33.54.11c-18.45.06-33.54.01-33.54-.1,0-.2,7.81-11.18,18.66-26.23l4.73-6.55,5.24-.27c2.88-.15,5.29-.3,5.35-.33.36-.19.05-27.59-.31-27.59-.59,0-1.93,1.85-18.46,25.56-8.05,11.54-16.94,24.27-19.76,28.29l-5.13,7.32h-22.73c-18.51,0-22.69-.11-22.51-.57h0Z"/>
    </g>
  </g>
</svg>